<?xml version="1.0" encoding="UTF-8"?>
<svg width="64" height="64" viewBox="0 0 64 64" xmlns="http://www.w3.org/2000/svg">
  <defs>
    <linearGradient id="bg" x1="0%" y1="0%" x2="100%" y2="100%">
      <stop offset="0%" style="stop-color:#4F46E5"/>
      <stop offset="100%" style="stop-color:#7C3AED"/>
    </linearGradient>
  </defs>

  <!-- 背景 -->
  <rect width="64" height="64" rx="12" fill="url(#bg)"/>

  <!-- Markdown # 符号 -->
  <g transform="translate(8, 12)">
    <rect x="0" y="4" width="2" height="12" fill="white" opacity="0.9"/>
    <rect x="4" y="4" width="2" height="12" fill="white" opacity="0.9"/>
    <rect x="-1" y="8" width="8" height="1.5" fill="white" opacity="0.9"/>
    <rect x="-1" y="12" width="8" height="1.5" fill="white" opacity="0.9"/>
  </g>

  <!-- 看板卡片 -->
  <g transform="translate(22, 8)">
    <!-- 列1 -->
    <rect x="0" y="0" width="10" height="24" rx="2" fill="white" opacity="0.9"/>
    <rect x="1" y="2" width="8" height="3" rx="0.5" fill="#EF4444" opacity="0.7"/>
    <rect x="1" y="6" width="8" height="3" rx="0.5" fill="#F59E0B" opacity="0.7"/>

    <!-- 列2 -->
    <rect x="12" y="0" width="10" height="24" rx="2" fill="white" opacity="0.9"/>
    <rect x="13" y="2" width="8" height="3" rx="0.5" fill="#3B82F6" opacity="0.7"/>
    <rect x="13" y="6" width="8" height="3" rx="0.5" fill="#10B981" opacity="0.7"/>
    <rect x="13" y="10" width="8" height="3" rx="0.5" fill="#8B5CF6" opacity="0.7"/>

    <!-- 列3 -->
    <rect x="24" y="0" width="10" height="24" rx="2" fill="white" opacity="0.9"/>
    <rect x="25" y="2" width="8" height="3" rx="0.5" fill="#06B6D4" opacity="0.7"/>
  </g>

  <!-- 箭头 -->
  <path d="M20 45 L28 49 L20 53 L22 49 Z" fill="white" opacity="0.6"/>
  <path d="M32 45 L40 49 L32 53 L34 49 Z" fill="white" opacity="0.6"/>
</svg>